<?xml version="1.0" encoding="UTF-8" standalone="no" ?>
<!DOCTYPE svg PUBLIC "-//W3C//DTD SVG 1.1//EN" "http://www.w3.org/Graphics/SVG/1.1/DTD/svg11.dtd">
<svg xmlns="http://www.w3.org/2000/svg" xmlns:xlink="http://www.w3.org/1999/xlink" version="1.1" width="380" height="280" viewBox="0 0 380 280" xml:space="preserve">
<desc>Created with Fabric.js 3.6.6</desc>
<defs>
</defs>
<g transform="matrix(1 0 0 1 312 145)"  >
<g style=""   >
		<g transform="matrix(1 0 0 1 -287.5 -136)"  >
<rect style="stroke: none; stroke-width: 1; stroke-dasharray: none; stroke-linecap: butt; stroke-dashoffset: 0; stroke-linejoin: miter; stroke-miterlimit: 4; fill: rgb(0,0,0); fill-opacity: 0; fill-rule: nonzero; opacity: 1;"  x="-50" y="-50" rx="0" ry="0" width="100" height="100" />
</g>
		<g transform="matrix(1 0 0 1 22 132)"  >
<path style="stroke: rgb(0,0,0); stroke-width: 1; stroke-dasharray: none; stroke-linecap: round; stroke-dashoffset: 0; stroke-linejoin: round; stroke-miterlimit: 10; fill: none; fill-rule: nonzero; opacity: 1;"  transform=" translate(-359.5, -318)" d="M 359.499 318 L 359.501 318" stroke-linecap="round" />
</g>
		<g transform="matrix(1 0 0 1 104 41)"  >
<path style="stroke: rgb(0,0,0); stroke-width: 1; stroke-dasharray: none; stroke-linecap: round; stroke-dashoffset: 0; stroke-linejoin: round; stroke-miterlimit: 10; fill: none; fill-rule: nonzero; opacity: 1;"  transform=" translate(-441.5, -227)" d="M 441.499 227 L 441.501 227" stroke-linecap="round" />
</g>
		<g transform="matrix(2.81 0 0 2.81 -183.46 -65.01)"  >
<linearGradient id="SVGID_18" gradientUnits="userSpaceOnUse" gradientTransform="matrix(1 0 0 1 13.05 12.46)"  x1="11.909753174407497" y1="22.80972836934466" x2="11.909753174407497" y2="0">
<stop offset="0%" style="stop-color:rgb(16,0,255);stop-opacity: 1"/>
<stop offset="100%" style="stop-color:rgb(29,172,232);stop-opacity: 1"/>
</linearGradient>
<path style="stroke: none; stroke-width: 1; stroke-dasharray: none; stroke-linecap: butt; stroke-dashoffset: 0; stroke-linejoin: miter; stroke-miterlimit: 10; fill: url(#SVGID_18); fill-rule: nonzero; opacity: 1;"  transform=" translate(-24.96, -23.86)" d="M 15.05 35.268 c -0.243 0 -0.491 -0.044 -0.73 -0.139 c -1.028 -0.404 -1.534 -1.565 -1.131 -2.593 c 3.723 -9.479 11.395 -16.759 21.049 -19.974 c 1.046 -0.351 2.18 0.218 2.529 1.266 c 0.349 1.048 -0.218 2.181 -1.266 2.529 c -8.526 2.839 -15.302 9.269 -18.589 17.641 C 16.603 34.786 15.849 35.268 15.05 35.268 z" stroke-linecap="round" />
</g>
		<g transform="matrix(2.81 0 0 2.81 -81.66 39.75)"  >
<linearGradient id="SVGID_19" gradientUnits="userSpaceOnUse" gradientTransform="matrix(1 0 0 1 43.06 43.04)"  x1="18.114000000000004" y1="36.229" x2="18.114000000000004" y2="0">
<stop offset="0%" style="stop-color:rgb(16,0,255);stop-opacity: 1"/>
<stop offset="100%" style="stop-color:rgb(29,172,232);stop-opacity: 1"/>
</linearGradient>
<path style="stroke: none; stroke-width: 1; stroke-dasharray: none; stroke-linecap: butt; stroke-dashoffset: 0; stroke-linejoin: miter; stroke-miterlimit: 10; fill: url(#SVGID_19); fill-rule: nonzero; opacity: 1;"  transform=" translate(-61.17, -61.16)" d="M 45.059 79.272 c -1.104 0 -2 -0.896 -2 -2 s 0.896 -2 2 -2 c 16.667 0 30.228 -13.561 30.228 -30.229 c 0 -1.104 0.896 -2 2 -2 s 2 0.896 2 2 C 79.287 63.918 63.933 79.272 45.059 79.272 z" stroke-linecap="round" />
</g>
		<g transform="matrix(2.81 0 0 2.81 -127.14 -5.64)"  >
<linearGradient id="SVGID_20" gradientUnits="userSpaceOnUse" gradientTransform="matrix(1 0 0 1 0 0)"  x1="45" y1="90" x2="45" y2="0">
<stop offset="0%" style="stop-color:rgb(16,0,248);stop-opacity: 1"/>
<stop offset="100%" style="stop-color:rgb(29,172,232);stop-opacity: 1"/>
</linearGradient>
<path style="stroke: none; stroke-width: 1; stroke-dasharray: 1 10; stroke-linecap: butt; stroke-dashoffset: 0; stroke-linejoin: miter; stroke-miterlimit: 10; fill: url(#SVGID_20); fill-rule: nonzero; opacity: 1;"  transform=" translate(-45, -45)" d="M 45 90 C 20.187 90 0 69.813 0 45 C 0 20.187 20.187 0 45 0 c 6.984 0 13.681 1.557 19.9 4.628 c 0.99 0.489 1.396 1.688 0.907 2.679 c -0.488 0.99 -1.687 1.397 -2.679 0.908 C 57.465 5.418 51.365 4 45 4 C 22.393 4 4 22.393 4 45 s 18.393 41 41 41 s 41 -18.393 41 -41 c 0 -7.9 -2.251 -15.569 -6.509 -22.177 c -0.599 -0.929 -0.331 -2.167 0.598 -2.765 c 0.929 -0.597 2.166 -0.331 2.765 0.598 C 87.528 27.912 90 36.33 90 45 C 90 69.813 69.813 90 45 90 z" stroke-linecap="round" />
</g>
		<g transform="matrix(2.81 0 0 2.81 -45.16 -95.64)"  >
<path style="stroke: none; stroke-width: 1; stroke-dasharray: none; stroke-linecap: butt; stroke-dashoffset: 0; stroke-linejoin: miter; stroke-miterlimit: 10; fill: rgb(255,255,255); fill-rule: nonzero; opacity: 1;"  transform=" translate(-74.18, -12.97)" d="M 79.113 10.97 h -2.936 V 8.034 c 0 -1.104 -0.896 -2 -2 -2 s -2 0.896 -2 2 v 2.936 h -2.936 c -1.104 0 -2 0.896 -2 2 s 0.896 2 2 2 h 2.936 v 2.936 c 0 1.104 0.896 2 2 2 s 2 -0.896 2 -2 V 14.97 h 2.936 c 1.104 0 2 -0.896 2 -2 S 80.218 10.97 79.113 10.97 z" stroke-linecap="round" />
</g>
		<g transform="matrix(2.81 0 0 2.81 -127.14 -5.64)"  >
<path style="stroke: none; stroke-width: 1; stroke-dasharray: none; stroke-linecap: butt; stroke-dashoffset: 0; stroke-linejoin: miter; stroke-miterlimit: 10; fill: rgb(255,255,255); fill-rule: nonzero; opacity: 1;"  transform=" translate(-45, -45)" d="M 56.354 50.673 c -1.104 0 -2 0.896 -2 2 c 0 2.152 -1.751 3.903 -3.903 3.903 H 39.549 c -2.152 0 -3.903 -1.751 -3.903 -3.903 V 37.328 c 0 -2.152 1.751 -3.904 3.903 -3.904 h 10.902 c 2.152 0 3.903 1.751 3.903 3.904 c 0 1.104 0.896 2 2 2 s 2 -0.896 2 -2 c 0 -4.358 -3.546 -7.904 -7.903 -7.904 H 47 V 25.5 c 0 -1.104 -0.896 -2 -2 -2 s -2 0.896 -2 2 v 3.924 h -3.451 c -4.358 0 -7.903 3.545 -7.903 7.904 v 15.345 c 0 4.357 3.545 7.903 7.903 7.903 H 43 V 64.5 c 0 1.104 0.896 2 2 2 s 2 -0.896 2 -2 v -3.924 h 3.451 c 4.357 0 7.903 -3.546 7.903 -7.903 C 58.354 51.568 57.459 50.673 56.354 50.673 z" stroke-linecap="round" />
</g>
</g>
</g>
</svg>